<svg width="123" height="91" viewBox="0 0 123 91" fill="none" xmlns="http://www.w3.org/2000/svg">
<mask id="mask0_1_331" style="mask-type:alpha" maskUnits="userSpaceOnUse" x="-1" y="0" width="124" height="92">
<rect x="-0.00012207" y="0.00012207" width="123" height="91" fill="#D9D9D9"/>
</mask>
<g mask="url(#mask0_1_331)">
<path d="M26.8052 41.9999C26.8052 51.9411 34.864 59.9999 44.8052 59.9999L71.8052 59.9999C74.5666 59.9999 76.8052 57.7614 76.8052 54.9999L76.8052 20.9999C76.8052 15.4771 72.328 10.9999 66.8052 10.9999L31.8052 10.9999C29.0437 10.9999 26.8052 13.2385 26.8052 15.9999L26.8052 41.9999Z" fill="#FFF1DA"/>
<path d="M75.3891 55.9413C74.0307 56.2456 72.7077 56.8091 71.5022 57.5965C68.3614 59.5978 66.5341 62.4546 67.421 63.9767C68.308 65.4988 71.5731 65.1095 74.7138 63.1082C75.9356 62.3486 77.021 61.3779 77.9032 60.2559C78.3125 59.7138 78.386 59.0383 78.0908 58.5334L76.9386 56.556C76.6454 56.0495 76.0374 55.8086 75.3891 55.9413Z" fill="#D5D6DB"/>
<path d="M67.5021 28.9483C66.5171 29.169 65.5577 29.5778 64.6834 30.1489C62.4066 31.5997 61.0808 33.6711 61.7234 34.7739C62.366 35.8766 64.7345 35.5941 67.0111 34.1435C67.897 33.5924 68.6839 32.8881 69.3237 32.0745C69.6202 31.6816 69.6733 31.1922 69.4593 30.8261L68.6251 29.3944C68.4128 29.0272 67.9722 28.8521 67.5021 28.9483Z" fill="#D5D6DB"/>
<path d="M54.688 30.0787C54.4687 30.0542 54.2349 30.1126 54.0322 30.2421L48.684 33.6503C48.2366 33.9346 48.0576 34.4819 48.2845 34.8731C48.3364 34.9627 48.4075 35.0393 48.4937 35.0983L61.6753 44.1832L79.5088 32.8185L54.688 30.0787Z" fill="#029BC5"/>
<path d="M111.065 28.794L62.5329 59.3461L33.8201 70.7716L19.177 73.6823L17.566 70.9451L98.4612 20.9985C100.872 19.5036 103.558 18.586 106.246 18.3389C107.424 18.237 108.587 18.2762 109.708 18.455C110.702 18.6057 111.645 18.8964 112.508 19.3185C113.472 19.7967 115.307 19.8519 115.901 20.8047C115.903 20.8032 117.305 25.1776 111.065 28.794V28.794Z" fill="#E1E6E9"/>
<path d="M63.1762 55.3036L42.1809 88.7735C41.9187 89.2437 42.0744 89.7702 42.5283 89.9494C42.8068 90.0595 43.1477 90.016 43.4341 89.834L48.7781 86.4438C49.806 85.7915 50.7161 84.9629 51.4523 84.0093L92.1686 36.1404L63.1762 55.3036Z" fill="#029BC5"/>
<path d="M10.1966 54.1861C9.8464 54.0664 9.42961 54.1285 9.07778 54.3525L4.66029 57.1659C4.05837 57.549 3.81852 58.2854 4.12438 58.8111C4.18266 58.911 4.25836 58.999 4.3491 59.0714L16.7259 68.9838L29.7389 60.8557L10.1966 54.1861Z" fill="#029BC5"/>
<path d="M20.8742 70.7707L14.2127 80.1002C14.115 80.2343 14.138 80.4026 14.264 80.4759C14.3548 80.5288 14.4788 80.5192 14.5796 80.4517L18.7078 77.8357C18.7399 77.8154 18.7689 77.7899 18.7929 77.7609L28.5265 65.9261L20.8742 70.7707Z" fill="#029BC5"/>
<path d="M108.911 18.8572C107.757 18.6718 106.559 18.6322 105.346 18.7388C104.166 20.3899 103.411 22.2446 103.157 24.118C103.139 24.4943 103.442 24.7652 103.835 24.723C103.957 24.7098 104.079 24.6669 104.188 24.5981L111.796 19.7538C110.906 19.3152 109.935 19.0134 108.911 18.8572Z" fill="#029BC5"/>
<path d="M92.3322 27.7653L97.2992 24.6284L101.926 32.4974L96.9588 35.6343L92.3322 27.7653Z" fill="#D5D6DB"/>
<path d="M89.2066 30.8775C88.6081 31.2567 88.3688 31.9855 88.6727 32.5052L89.165 33.3472C89.4889 33.8536 90.2282 33.9427 90.8164 33.546C91.3763 33.1682 91.6017 32.4815 91.3319 31.9745L90.8396 31.1325C90.536 30.6132 89.8052 30.499 89.2066 30.8775V30.8775Z" fill="#3A556A"/>
<path d="M84.7423 33.65C84.1437 34.0291 83.9045 34.7579 84.2084 35.2777L84.7007 36.1196C85.0245 36.6261 85.7638 36.7152 86.3521 36.3185C86.9119 35.9407 87.1373 35.254 86.8676 34.747L86.3752 33.905C86.0714 33.3859 85.3406 33.2716 84.7423 33.65V33.65Z" fill="#3A556A"/>
<path d="M80.2764 36.4233C79.6785 36.803 79.4401 37.5309 79.7438 38.0501L80.2361 38.8921C80.5599 39.3986 81.2992 39.4876 81.8875 39.0909C82.4473 38.7131 82.6727 38.0265 82.403 37.5195L81.9106 36.6775C81.6068 36.1578 80.8752 36.044 80.2764 36.4233V36.4233Z" fill="#3A556A"/>
<path d="M75.8121 39.1957C75.2142 39.5754 74.9758 40.3033 75.2794 40.8226L75.7717 41.6646C76.0956 42.171 76.8348 42.2601 77.4231 41.8634C77.9829 41.4856 78.2084 40.7989 77.9386 40.2919L77.4463 39.4499C77.1422 38.9304 76.4106 38.8166 75.8121 39.1957V39.1957Z" fill="#3A556A"/>
<path d="M71.3481 41.9684C70.7499 42.3482 70.5113 43.0764 70.8151 43.5959L71.3077 44.4383C71.6114 44.9575 72.3427 45.0712 72.941 44.6923C73.5394 44.3133 73.7783 43.5851 73.4746 43.0658L72.982 42.2235C72.6791 41.7037 71.9481 41.5892 71.3494 41.9676C71.3489 41.9679 71.3486 41.9681 71.3481 41.9684Z" fill="#3A556A"/>
<path d="M66.8837 44.7408C66.2855 45.1207 66.047 45.8489 66.3508 46.3684L66.8434 47.2107C67.147 47.73 67.8783 47.8437 68.4767 47.4647C69.075 47.0857 69.3139 46.3575 69.0103 45.8383L68.5177 44.9959C68.2148 44.4762 67.4838 44.3617 66.885 44.74C66.8845 44.7404 66.884 44.7407 66.8837 44.7408Z" fill="#3A556A"/>
<path d="M62.4191 47.5134C61.8209 47.8932 61.5824 48.6214 61.8862 49.1409L62.3788 49.9832C62.6832 50.502 63.4148 50.6145 64.0125 50.2351C64.6092 49.8562 64.8476 49.1296 64.5454 48.6109L64.0528 47.7686C63.7492 47.249 63.018 47.1347 62.4191 47.5134Z" fill="#3A556A"/>
<path d="M57.9545 50.2859C57.3563 50.6657 57.1178 51.3939 57.4216 51.9134L57.9142 52.7558C58.2186 53.2746 58.9502 53.3871 59.5479 53.0076C60.1446 52.6288 60.383 51.9021 60.0808 51.3835L59.5882 50.5411C59.2846 50.0215 58.5534 49.9072 57.9545 50.2859Z" fill="#3A556A"/>
<path d="M53.4903 53.0583C52.8921 53.4381 52.6535 54.1663 52.9573 54.6858L53.4499 55.5281C53.7543 56.0469 54.486 56.1595 55.0837 55.78C55.6804 55.4011 55.9188 54.6745 55.6165 54.1559L55.1239 53.3136C54.8201 52.7941 54.0889 52.6798 53.4903 53.0583Z" fill="#3A556A"/>
<path d="M49.0245 55.8315C48.4261 56.2105 48.1872 56.9387 48.4909 57.458L48.4915 57.4591L48.9841 58.3014C49.2885 58.8202 50.0201 58.9328 50.6179 58.5533C51.2146 58.1744 51.453 57.4478 51.1507 56.9291L50.6581 56.0868C50.3546 55.5671 49.6233 55.4528 49.0245 55.8315Z" fill="#3A556A"/>
<path d="M44.5612 58.6032C43.9629 58.9822 43.724 59.7104 44.0276 60.2296L44.0283 60.2307L44.5209 61.073C44.8253 61.5918 45.5569 61.7044 46.1546 61.3249C46.7514 60.9461 46.9898 60.2194 46.6875 59.7008L46.1949 58.8585C45.8911 58.339 45.1599 58.2247 44.5612 58.6032Z" fill="#3A556A"/>
</g>
</svg>
